<svg xmlns="http://www.w3.org/2000/svg" viewBox="0 0 100 100">
  <!--
    Vibely POS — App Icon Mark v4
    Black (#111827) background. V is the background element.
    Barcode overlays the V in the center of the canvas.
  -->

  <!-- Background: primary near-black -->
  <rect width="100" height="100" fill="#111827"/>

  <!-- V — drawn first as the background element -->
  <line x1="17" y1="12" x2="50" y2="90"
        stroke="white" stroke-width="11" stroke-linecap="round"/>
  <line x1="83" y1="12" x2="50" y2="90"
        stroke="white" stroke-width="11" stroke-linecap="round"/>

  <!--
    Barcode — drawn on top of the V.
    Centered vertically: y=39–61 (height=22, center at y=50).
    Spans x=14–86. Alternating thin (2–3px) and thick (4px) bars.
  -->
  <rect x="14" y="39" width="3" height="22" fill="white"/>
  <rect x="19" y="39" width="2" height="22" fill="white"/>
  <rect x="23" y="39" width="4" height="22" fill="white"/>
  <rect x="29" y="39" width="2" height="22" fill="white"/>
  <rect x="33" y="39" width="3" height="22" fill="white"/>
  <rect x="38" y="39" width="2" height="22" fill="white"/>
  <rect x="42" y="39" width="2" height="22" fill="white"/>
  <rect x="46" y="39" width="4" height="22" fill="white"/>
  <rect x="52" y="39" width="2" height="22" fill="white"/>
  <rect x="56" y="39" width="3" height="22" fill="white"/>
  <rect x="61" y="39" width="2" height="22" fill="white"/>
  <rect x="65" y="39" width="4" height="22" fill="white"/>
  <rect x="71" y="39" width="2" height="22" fill="white"/>
  <rect x="75" y="39" width="3" height="22" fill="white"/>
  <rect x="80" y="39" width="3" height="22" fill="white"/>
  <rect x="85" y="39" width="1" height="22" fill="white"/>
</svg>
