<svg xmlns="http://www.w3.org/2000/svg" viewBox="0 0 100 100">
  <!--
    Vibely POS — App Icon Mark v6
    Layering: V (background) → dark mask strip → barcode bars (foreground).
    The mask hides the V arms in the barcode zone so the barcode
    appears to float in front of the V.
  -->

  <!-- Canvas background -->
  <rect width="100" height="100" fill="#111827"/>

  <!-- 1. V — background element, spans full canvas -->
  <line x1="17" y1="12" x2="50" y2="90"
        stroke="white" stroke-width="11" stroke-linecap="round"/>
  <line x1="83" y1="12" x2="50" y2="90"
        stroke="white" stroke-width="11" stroke-linecap="round"/>

  <!-- 2. Mask strip — erases the V in the barcode zone -->
  <rect x="0" y="35" width="100" height="30" fill="#111827"/>

  <!-- 3. Barcode bars — foreground, centered vertically (y=39–61) -->
  <rect x="14" y="39" width="3" height="22" fill="white"/>
  <rect x="19" y="39" width="2" height="22" fill="white"/>
  <rect x="23" y="39" width="4" height="22" fill="white"/>
  <rect x="29" y="39" width="2" height="22" fill="white"/>
  <rect x="33" y="39" width="3" height="22" fill="white"/>
  <rect x="38" y="39" width="2" height="22" fill="white"/>
  <rect x="42" y="39" width="2" height="22" fill="white"/>
  <rect x="46" y="39" width="4" height="22" fill="white"/>
  <rect x="52" y="39" width="2" height="22" fill="white"/>
  <rect x="56" y="39" width="3" height="22" fill="white"/>
  <rect x="61" y="39" width="2" height="22" fill="white"/>
  <rect x="65" y="39" width="4" height="22" fill="white"/>
  <rect x="71" y="39" width="2" height="22" fill="white"/>
  <rect x="75" y="39" width="3" height="22" fill="white"/>
  <rect x="80" y="39" width="3" height="22" fill="white"/>
  <rect x="85" y="39" width="1" height="22" fill="white"/>
</svg>
