<svg xmlns="http://www.w3.org/2000/svg" viewBox="0 0 320 80">
  <!--
    Vibely POS — Full Wordmark v6
    Black (#111827) background. V behind mask strip, barcode in foreground.
  -->

  <!-- Background -->
  <rect width="320" height="80" fill="#111827"/>

  <!-- ===== ICON MARK (left column, 64px tall) ===== -->
  <!-- Scaled from 100×100 viewBox to 64px: scale=0.64, offset x=8 y=8 -->
  <g transform="translate(8, 8) scale(0.64)">
    <!-- 1. V — background -->
    <line x1="17" y1="12" x2="50" y2="90"
          stroke="white" stroke-width="11" stroke-linecap="round"/>
    <line x1="83" y1="12" x2="50" y2="90"
          stroke="white" stroke-width="11" stroke-linecap="round"/>
    <!-- 2. Mask strip -->
    <rect x="0" y="35" width="100" height="30" fill="#111827"/>
    <!-- 3. Barcode bars — foreground -->
    <rect x="14" y="39" width="3" height="22" fill="white"/>
    <rect x="19" y="39" width="2" height="22" fill="white"/>
    <rect x="23" y="39" width="4" height="22" fill="white"/>
    <rect x="29" y="39" width="2" height="22" fill="white"/>
    <rect x="33" y="39" width="3" height="22" fill="white"/>
    <rect x="38" y="39" width="2" height="22" fill="white"/>
    <rect x="42" y="39" width="2" height="22" fill="white"/>
    <rect x="46" y="39" width="4" height="22" fill="white"/>
    <rect x="52" y="39" width="2" height="22" fill="white"/>
    <rect x="56" y="39" width="3" height="22" fill="white"/>
    <rect x="61" y="39" width="2" height="22" fill="white"/>
    <rect x="65" y="39" width="4" height="22" fill="white"/>
    <rect x="71" y="39" width="2" height="22" fill="white"/>
    <rect x="75" y="39" width="3" height="22" fill="white"/>
    <rect x="80" y="39" width="3" height="22" fill="white"/>
    <rect x="85" y="39" width="1" height="22" fill="white"/>
  </g>

  <!-- Separator line -->
  <line x1="82" y1="16" x2="82" y2="64"
        stroke="#374151" stroke-width="1"/>

  <!-- ===== WORDMARK TEXT ===== -->
  <text x="94" y="50"
        font-family="'Inter', 'Helvetica Neue', Arial, sans-serif"
        font-size="30" font-weight="700" letter-spacing="-0.5"
        fill="white">Vibely</text>

  <text x="95" y="66"
        font-family="'Inter', 'Helvetica Neue', Arial, sans-serif"
        font-size="12" font-weight="500" letter-spacing="4"
        fill="#9CA3AF">POS</text>
</svg>
